<svg xmlns="http://www.w3.org/2000/svg" viewBox="0 0 10.24 10.24"><defs><style>.cls-1{fill:#414042;}</style></defs><g id="Layer_2" data-name="Layer 2"><g id="Resume"><path class="cls-1" d="M5.12,0a5.12,5.12,0,1,0,5.12,5.12A5.14,5.14,0,0,0,5.12,0ZM8.66,3.07H7.17a7.81,7.81,0,0,0-.72-1.84A4.11,4.11,0,0,1,8.66,3.07ZM5.12,1a6.74,6.74,0,0,1,1,2H4.15a7.36,7.36,0,0,1,1-2ZM1.18,6.15a3.42,3.42,0,0,1-.15-1,3.31,3.31,0,0,1,.15-1H2.92a7,7,0,0,0,0,1c0,.36,0,.67,0,1Zm.41,1H3.07A8.27,8.27,0,0,0,3.79,9a4.08,4.08,0,0,1-2.2-1.84Zm1.48-4.1H1.59a4.31,4.31,0,0,1,2.2-1.84,8.27,8.27,0,0,0-.72,1.84ZM5.12,9.22a6.68,6.68,0,0,1-1-2.05H6.09a7.28,7.28,0,0,1-1,2.05ZM6.3,6.15H3.94a7.18,7.18,0,0,1-.1-1,7,7,0,0,1,.1-1H6.35a7,7,0,0,1,.1,1,7.31,7.31,0,0,1-.15,1ZM6.45,9a7.05,7.05,0,0,0,.72-1.84H8.66A4.07,4.07,0,0,1,6.45,9Zm.93-2.86a7.11,7.11,0,0,0,0-1c0-.36,0-.66,0-1H9.12a3.31,3.31,0,0,1,.15,1,3.42,3.42,0,0,1-.15,1Z" fill="#404042"/></g></g></svg>