<svg xmlns="http://www.w3.org/2000/svg" viewBox="0 0 20.37 21.62"><defs><style>.cls-1{fill:#404042;}</style></defs><g id="Layer_2" data-name="Layer 2"><g id="Resume"><path class="cls-1" d="M13.1,4.12A2.06,2.06,0,1,0,11,2.06,2.07,2.07,0,0,0,13.1,4.12Zm2.82,8.23c-.12,0-.22,0-.34,0l-.43-2.54a1.66,1.66,0,0,1-.66.14h-.22l.23,1.3h-.73A1.1,1.1,0,0,0,13,9.68l-2.41-.47.18-.44a1.11,1.11,0,0,0,.94.55h2.76a1.1,1.1,0,0,0,0-2.2h-2L12,5.91l0-.1A1.65,1.65,0,1,0,9,4.56L7.05,9.22a1.61,1.61,0,0,0,0,1.29H6.42a.66.66,0,0,0-.64.65.67.67,0,0,0,.67.67H7.51l.63,1.81-.68,4.16a1.09,1.09,0,1,0,2.16.35l.73-4.43a1.1,1.1,0,0,0,0-.54l-.67-1.93,1.46.28-.44.63.28.8a1.84,1.84,0,0,1,.07.87l-.22,1.36-.27,1.62,1.22-1.37A4.92,4.92,0,0,0,11.47,17a4.55,4.55,0,0,0,4.45,4.64,4.64,4.64,0,0,0,0-9.27Zm-1.27-.15.06.35a3.5,3.5,0,0,0-.52.17Zm-1.48,0h.33l-1.41,1.57Zm2.75,8.42A3.52,3.52,0,0,1,12.5,17a3.57,3.57,0,0,1,2.39-3.41l.52,3.05a.67.67,0,0,0-.12.36.63.63,0,1,0,1-.52l-.52-3.06.16,0A3.52,3.52,0,0,1,19.34,17,3.52,3.52,0,0,1,15.92,20.59ZM7.19,19.11a3.34,3.34,0,0,1-2.74,1.48A3.52,3.52,0,0,1,1,17a3.52,3.52,0,0,1,3.42-3.6,3.28,3.28,0,0,1,2,.73l-2,2.22h0a.66.66,0,0,0,0,1.31.6.6,0,0,0,.46-.22H6.84L7,16.54H5.45l1.65-1.8c.05.07.11.12.15.19l.08-.43.13-.79-.17-.48-.11.12a4.36,4.36,0,0,0-2.73-1,4.64,4.64,0,0,0,0,9.27,4.37,4.37,0,0,0,3.6-1.95A1.73,1.73,0,0,1,7.19,19.11Z"/></g></g></svg>