<svg xmlns="http://www.w3.org/2000/svg" viewBox="0 0 17.06 18.37"><defs><style>.cls-1{fill:#404042;fill-rule:evenodd;}</style></defs><g id="Layer_2" data-name="Layer 2"><g id="Resume"><path class="cls-1" d="M11.2,14.15h0a2.91,2.91,0,0,1,2.92-2.91,3.62,3.62,0,0,1,.45,0,.51.51,0,0,0,.44-.11.57.57,0,0,0,.2-.45V4.21A.55.55,0,0,0,15,3.79a.59.59,0,0,0-.45-.13l-8.24.92a.58.58,0,0,0-.49.56V15.53a3,3,0,0,1-2.93,2.84,2.93,2.93,0,0,1,0-5.86l.43,0a.52.52,0,0,0,.45-.13A.5.5,0,0,0,4,12V1.49L17.06,0V14.28a2.93,2.93,0,0,1-5.86-.13Z"/></g></g></svg>