<svg xmlns="http://www.w3.org/2000/svg" viewBox="0 0 24.2 16.62"><defs><style>.cls-1{fill:#404042;fill-rule:evenodd;}</style></defs><g id="Layer_2" data-name="Layer 2"><g id="Resume"><path class="cls-1" d="M15.89,9.06A3.78,3.78,0,1,1,12.1,5.29a3.79,3.79,0,0,1,3.79,3.77ZM24.2,3v12.1a1.5,1.5,0,0,1-1.52,1.5H1.52A1.5,1.5,0,0,1,0,15.12V3A1.53,1.53,0,0,1,1.52,1.5H3A1.51,1.51,0,0,1,4.54,0H6.06a1.5,1.5,0,0,1,1.5,1.5H22.68A1.53,1.53,0,0,1,24.2,3Zm-6.81,6a5.29,5.29,0,1,0-5.29,5.29,5.29,5.29,0,0,0,5.29-5.29Zm3.79-6h-3v1.5h3Z"/></g></g></svg>